<?xml version="1.0" encoding="UTF-8"?>
<svg version="1.1" xmlns="http://www.w3.org/2000/svg" width="318" height="54">
<path d="M0 0 C2.33944736 0.28730055 4.6739143 0.61936779 7 1 C7.33 2.98 7.66 4.96 8 7 C8.77150391 6.01966797 8.77150391 6.01966797 9.55859375 5.01953125 C12.84220164 2.3033308 14.85667701 2.55924672 19.0625 2.6875 C20.90521484 2.72423828 20.90521484 2.72423828 22.78515625 2.76171875 C26 3 26 3 29 4 C28.21302675 7.41021743 27.12880057 10.68885166 26 14 C24.35 14.33 22.7 14.66 21 15 C21.495 16.485 21.495 16.485 22 18 C21.01 18.33 20.02 18.66 19 19 C18.896875 20.0725 18.79375 21.145 18.6875 22.25 C18 26 18 26 16.375 27.9375 C14.46065737 30.80901394 15.35826915 32.77512232 15.9296875 36.02734375 C16 38 16 38 14.1875 41 C12 43 12 43 10 43 C10.1546875 44.6396875 10.1546875 44.6396875 10.3125 46.3125 C10 50 10 50 7.75 51.9375 C5 53 5 53 1 53 C0.34 52.01 -0.32 51.02 -1 50 C-1.99 50 -2.98 50 -4 50 C-4.061875 48.948125 -4.12375 47.89625 -4.1875 46.8125 C-4.6483557 42.85816212 -4.6483557 42.85816212 -7.625 40.5625 C-10 38 -10 38 -9.96484375 36.08984375 C-9.69652491 34.69614882 -9.41916312 33.30416461 -9.1328125 31.9140625 C-8.91622244 28.79261752 -11.03537133 27.26229969 -13 25 C-13.25 21.6875 -13.25 21.6875 -13 19 C-13.99 18.67 -14.98 18.34 -16 18 C-16.33 17.01 -16.66 16.02 -17 15 C-19.50447516 13.78130071 -19.50447516 13.78130071 -22 13 C-22 11.35 -22 9.7 -22 8 C-22.66 7.67 -23.32 7.34 -24 7 C-24 6.01 -24 5.02 -24 4 C-18.35887891 2.1196263 -11.07108392 1.57645056 -5.58984375 4.1171875 C-3.6875 5.5 -3.6875 5.5 -1 8 C-1.0309375 6.2984375 -1.0309375 6.2984375 -1.0625 4.5625 C-1 1 -1 1 0 0 Z " fill="#72DDFF" transform="translate(24,0)"/>
<path d="M0 0 C0.8394882 2.10171867 1.67139656 4.20646625 2.5 6.3125 C3.19609375 8.07013672 3.19609375 8.07013672 3.90625 9.86328125 C5 13 5 13 5 16 C9.45239952 11.62739258 13.57304236 7.01423148 17.6953125 2.328125 C20.65698579 -0.66366701 22.25720148 -0.97298914 26.4375 -1.125 C29.25539762 -1.0261264 31.33543305 -0.73788008 34 0 C33.38125 1.794375 33.38125 1.794375 32.75 3.625 C29.5417853 13.28005373 26.82045665 22.98748843 25 33 C19.72 33 14.44 33 9 33 C9.52083333 30.72135417 10.04166667 28.44270833 10.5625 26.1640625 C11.06605239 24.04125049 11.06605239 24.04125049 11 22 C10.12988281 23.06541016 10.12988281 23.06541016 9.2421875 24.15234375 C8.46101563 25.07144531 7.67984375 25.99054687 6.875 26.9375 C6.10929687 27.85402344 5.34359375 28.77054688 4.5546875 29.71484375 C1.62949694 32.33141329 -0.14168466 32.73718722 -4 33 C-8.40774487 23.58997722 -8.40774487 23.58997722 -9 19 C-9.66 19 -10.32 19 -11 19 C-11.06058594 19.84304687 -11.12117188 20.68609375 -11.18359375 21.5546875 C-11.26738281 22.65039062 -11.35117187 23.74609375 -11.4375 24.875 C-11.51871094 25.96554688 -11.59992187 27.05609375 -11.68359375 28.1796875 C-12 31 -12 31 -13 33 C-15.97 33 -18.94 33 -22 33 C-21.5875 31.845 -21.175 30.69 -20.75 29.5 C-19.25195556 25.00586669 -18.03227369 20.46587287 -16.875 15.875 C-16.61928223 14.87243164 -16.61928223 14.87243164 -16.35839844 13.84960938 C-15.29900059 9.57410714 -14.5551211 5.36166581 -14 1 C-8.83430559 -0.79217969 -5.48946087 -1.12029814 0 0 Z " fill="#6B79FF" transform="translate(69,11)"/>
<path d="M0 0 C2 2 2 2 2.265625 4.35546875 C2.23466804 9.96641689 1.88360072 14.70237298 0 20 C0.66 20 1.32 20 2 20 C0.75023244 23.65316671 0.32901247 24.78065836 -3 27 C-6.5707254 27.3246114 -9.0432726 27.52276523 -12.23046875 25.78125 C-14 24 -14 24 -14.2421875 21.73046875 C-14.06042969 20.47169922 -14.06042969 20.47169922 -13.875 19.1875 C-13.68744141 17.86685547 -13.68744141 17.86685547 -13.49609375 16.51953125 C-12.91509192 13.56877394 -12.10424419 10.79741861 -11 8 C-14.14789027 8.66094879 -14.14789027 8.66094879 -15.125 11.1875 C-16.03631374 14.11672274 -16.57643017 16.96441618 -17 20 C-16.34 20 -15.68 20 -15 20 C-15.8940192 23.08842997 -16.41771208 24.63399045 -19.1875 26.375 C-22.76033192 27.16896265 -25.44611798 26.80465253 -29 26 C-31 24 -31 24 -31.25 20.25 C-31.16876295 16.54017494 -30.38476789 13.46191974 -29 10 C-29.66 9.67 -30.32 9.34 -31 9 C-31.99 14.61 -32.98 20.22 -34 26 C-39.28 26 -44.56 26 -50 26 C-49.2401686 20.68118023 -48.79107262 18.48183481 -46.69140625 14.0390625 C-45.50514485 10.54059666 -45.47352562 6.92629721 -45.30859375 3.2578125 C-45.20675781 2.51273438 -45.10492188 1.76765625 -45 1 C-42.35541621 -0.32229189 -40.32238699 -0.09677194 -37.375 -0.0625 C-35.87066406 -0.04896484 -35.87066406 -0.04896484 -34.3359375 -0.03515625 C-33.56507813 -0.02355469 -32.79421875 -0.01195313 -32 0 C-31.67 1.32 -31.34 2.64 -31 4 C-30.34 4 -29.68 4 -29 4 C-29 3.01 -29 2.02 -29 1 C-26.35541621 -0.32229189 -24.32238699 -0.09677194 -21.375 -0.0625 C-19.87066406 -0.04896484 -19.87066406 -0.04896484 -18.3359375 -0.03515625 C-17.56507813 -0.02355469 -16.79421875 -0.01195313 -16 0 C-16 0.66 -16 1.32 -16 2 C-15.43152344 1.77183594 -14.86304688 1.54367188 -14.27734375 1.30859375 C-9.12785799 -0.6084936 -5.48423232 -1.45500041 0 0 Z " fill="#6B7AFF" transform="translate(231,18)"/>
<path d="M0 0 C-0.33396237 10.18585234 -3.77037274 19.42756757 -7 29 C-6.34 29 -5.68 29 -5 29 C-5.3125 31.375 -5.3125 31.375 -6 34 C-9.57930837 36.38620558 -11.08494835 36.18440172 -15.3125 36.0625 C-18.76599767 35.97024629 -21.83908402 35.97153472 -25.24609375 36.57421875 C-28 37 -28 37 -30.75 35.75 C-33.7462 33.41962222 -34.85889408 31.54271507 -35.8125 27.875 C-36.08688873 22.20429959 -34.99894457 17.70217437 -31.58984375 13.09375 C-28.10972997 9.605409 -25.49717583 8.64596888 -20.5625 8.625 C-19.056875 8.74875 -17.55125 8.8725 -16 9 C-15.34 6.03 -14.68 3.06 -14 0 C-8.40693931 -2.05459372 -5.59306069 -2.05459372 0 0 Z " fill="#6A79FF" transform="translate(165,8)"/>
<path d="M0 0 C0.75 1.75 0.75 1.75 1 4 C-0.33333333 5.33333333 -1.66666667 6.66666667 -3 8 C-2.6814823 10.10820797 -2.6814823 10.10820797 -2 12 C0.27024968 12.08097324 2.54132075 12.13917704 4.8125 12.1875 C6.70935547 12.23970703 6.70935547 12.23970703 8.64453125 12.29296875 C11.96596445 12.30827421 11.96596445 12.30827421 13.94921875 10.48828125 C14.29597656 9.99714844 14.64273438 9.50601562 15 9 C14.34 8.443125 13.68 7.88625 13 7.3125 C11 5 11 5 10.75 2.25 C10.8325 1.5075 10.915 0.765 11 0 C14.45669582 -0.31424507 16.39901677 -0.37956836 19.375 1.5 C21.6379609 4.98147831 21.7427336 7.94872582 21 12 C20.484375 12.66 19.96875 13.32 19.4375 14 C17.55504666 16.13191971 17.55504666 16.13191971 18.5625 19.9375 C18.68367188 20.62714844 18.80484375 21.31679688 18.9296875 22.02734375 C19 24 19 24 17.1875 27 C15 29 15 29 13 29 C13.103125 30.093125 13.20625 31.18625 13.3125 32.3125 C13 36 13 36 10.75 37.9375 C8 39 8 39 4 39 C3.34 38.01 2.68 37.02 2 36 C1.01 36 0.02 36 -1 36 C-1.0928125 34.4221875 -1.0928125 34.4221875 -1.1875 32.8125 C-1.6483557 28.85816212 -1.6483557 28.85816212 -4.625 26.5625 C-7 24 -7 24 -7 22.01953125 C-6.87625 21.31183594 -6.7525 20.60414062 -6.625 19.875 C-6.41875 18.59625 -6.2125 17.3175 -6 16 C-6.474375 15.52820312 -6.94875 15.05640625 -7.4375 14.5703125 C-9 13 -9 13 -9.3984375 10.625 C-9.39070312 9.75875 -9.38296875 8.8925 -9.375 8 C-9.38273438 7.13375 -9.39046875 6.2675 -9.3984375 5.375 C-8.4594241 -0.22225634 -5.05041061 -0.33669404 0 0 Z " fill="#668BFF" transform="translate(21,14)"/>
<path d="M0 0 C0.845625 0.15984375 1.69125 0.3196875 2.5625 0.484375 C5.28231692 1.33867647 6.94127169 2.28037383 9 4.25 C9.74862448 10.23899587 9.74862448 10.23899587 7.78515625 12.890625 C5.55029428 14.59244549 3.75372037 14.99187303 1 15.5 C0.13375 15.67015625 -0.7325 15.8403125 -1.625 16.015625 C-4 16.25 -4 16.25 -7 15.25 C-6.67 16.57 -6.34 17.89 -6 19.25 C-2.37 18.92 1.26 18.59 5 18.25 C4.63858093 23.67128603 4.63858093 23.67128603 2 26.0625 C-2.77071589 27.95090837 -7.24838471 29.04355458 -12.2890625 27.58984375 C-15.42629413 26.18094155 -17.51367935 24.91139609 -19.5625 22.125 C-20.38749161 16.70362655 -19.87424681 11.4841863 -17.875 6.375 C-13.11140695 0.97626121 -7.03030884 -1.41463531 0 0 Z " fill="#6D7CFF" transform="translate(285,16.75)"/>
<path d="M0 0 C0.845625 0.15984375 1.69125 0.3196875 2.5625 0.484375 C5.28231692 1.33867647 6.94127169 2.28037383 9 4.25 C9.74862448 10.23899587 9.74862448 10.23899587 7.78515625 12.890625 C5.55029428 14.59244549 3.75372037 14.99187303 1 15.5 C0.13375 15.67015625 -0.7325 15.8403125 -1.625 16.015625 C-4 16.25 -4 16.25 -7 15.25 C-6.67 16.57 -6.34 17.89 -6 19.25 C-2.37 18.92 1.26 18.59 5 18.25 C4.63858093 23.67128603 4.63858093 23.67128603 2 26.0625 C-2.77071589 27.95090837 -7.24838471 29.04355458 -12.2890625 27.58984375 C-15.42629413 26.18094155 -17.51367935 24.91139609 -19.5625 22.125 C-20.38749161 16.70362655 -19.87424681 11.4841863 -17.875 6.375 C-13.11140695 0.97626121 -7.03030884 -1.41463531 0 0 Z " fill="#6D7CFF" transform="translate(256,16.75)"/>
<path d="M0 0 C1.875 2.875 1.875 2.875 1.9375 6.5 C0.75147735 10.26736607 0.23178105 10.99633094 -3.125 12.875 C-6.140625 13.16796875 -6.140625 13.16796875 -9.375 13.0625 C-10.45265625 13.03542969 -11.5303125 13.00835937 -12.640625 12.98046875 C-13.46046875 12.94566406 -14.2803125 12.91085938 -15.125 12.875 C-13.48721601 16.0867961 -13.48721601 16.0867961 -10.7421875 16.38671875 C-9.38480469 16.47373047 -9.38480469 16.47373047 -8 16.5625 C-6.63488281 16.66111328 -6.63488281 16.66111328 -5.2421875 16.76171875 C-4.54351562 16.79910156 -3.84484375 16.83648437 -3.125 16.875 C-3.44577317 19.84215181 -3.63608356 21.42225899 -5.8671875 23.48828125 C-9.70367616 25.84460214 -13.69019774 25.99410211 -18.125 25.875 C-22.44775025 24.38168628 -24.72786337 22.72827693 -27.125 18.875 C-27.89671383 14.29011198 -27.46216984 9.9918751 -26.125 5.5625 C-19.93923323 -2.7496241 -8.86120147 -6.025617 0 0 Z " fill="#6C7CFF" transform="translate(128.125,19.125)"/>
<path d="M0 0 C0 1.98 0 3.96 0 6 C1.32 6 2.64 6 4 6 C3.8125 7.875 3.8125 7.875 3 10 C2.195625 10.2371875 1.39125 10.474375 0.5625 10.71875 C-2.31581096 11.79519494 -2.31581096 11.79519494 -3.14453125 15.0390625 C-3.36496094 16.22242187 -3.58539063 17.40578125 -3.8125 18.625 C-4.04582031 19.81351563 -4.27914063 21.00203125 -4.51953125 22.2265625 C-4.67808594 23.14179687 -4.83664062 24.05703125 -5 25 C-3.35 25.33 -1.7 25.66 0 26 C-1.15173355 28.46800047 -2.04783565 30.04783565 -4 32 C-8.49678679 33.05853565 -12.66622739 33.37345633 -17.125 32.125 C-19.71822067 29.18601657 -19.43846015 26.96446496 -19.2734375 23.15625 C-19 21 -19 21 -18 18 C-18.01160156 17.10667969 -18.02320313 16.21335937 -18.03515625 15.29296875 C-18.06454478 11.95527106 -17.91291152 9.21854387 -17 6 C-12.51570978 1.71625944 -6.16705576 -1.91391386 0 0 Z " fill="#6B79FF" transform="translate(314,12)"/>
<path d="M0 0 C2.14576637 -0.02685938 4.29162645 -0.04633088 6.4375 -0.0625 C7.63246094 -0.07410156 8.82742187 -0.08570312 10.05859375 -0.09765625 C13 0 13 0 14 1 C13.40754059 9.44254657 11.60357672 17.70323349 10 26 C4.39 26 -1.22 26 -7 26 C-6.566875 24.700625 -6.13375 23.40125 -5.6875 22.0625 C-5.41679687 21.24265625 -5.14609375 20.4228125 -4.8671875 19.578125 C-4.30791238 17.91541519 -3.7310169 16.25847902 -3.1328125 14.609375 C-1.56030712 10.20635994 -0.76888871 6.73778153 -1 2 C-0.67 1.34 -0.34 0.68 0 0 Z " fill="#6A78FF" transform="translate(168,18)"/>
<path d="M0 0 C0.75 1.75 0.75 1.75 1 4 C-0.33333333 5.33333333 -1.66666667 6.66666667 -3 8 C-2.67 9.32 -2.34 10.64 -2 12 C4.93 12.495 4.93 12.495 12 13 C12.33 14.65 12.66 16.3 13 18 C11.18884044 19.81115956 8.38721773 19.38199448 5.9375 19.5625 C4.28041016 19.68818359 4.28041016 19.68818359 2.58984375 19.81640625 C1.73519531 19.87699219 0.88054688 19.93757813 0 20 C-0.33 21.32 -0.66 22.64 -1 24 C0.093125 24.474375 1.18625 24.94875 2.3125 25.4375 C2.92738281 25.70433594 3.54226562 25.97117187 4.17578125 26.24609375 C5.75711021 26.89961942 7.37675406 27.45891802 9 28 C8.67 28.99 8.34 29.98 8 31 C6.68 31 5.36 31 4 31 C4 32.98 4 34.96 4 37 C1 37 1 37 -1 36 C-1.103125 34.9275 -1.20625 33.855 -1.3125 32.75 C-1.64203202 28.84512694 -1.64203202 28.84512694 -4.625 26.5625 C-7 24 -7 24 -7 22.01953125 C-6.87625 21.31183594 -6.7525 20.60414062 -6.625 19.875 C-6.41875 18.59625 -6.2125 17.3175 -6 16 C-6.474375 15.52820312 -6.94875 15.05640625 -7.4375 14.5703125 C-9 13 -9 13 -9.3984375 10.625 C-9.39070312 9.75875 -9.38296875 8.8925 -9.375 8 C-9.38273438 7.13375 -9.39046875 6.2675 -9.3984375 5.375 C-8.4594241 -0.22225634 -5.05041061 -0.33669404 0 0 Z " fill="#6488FF" transform="translate(21,14)"/>
<path d="M0 0 C1.08152344 -0.01417969 2.16304687 -0.02835938 3.27734375 -0.04296875 C6.0625 0.1875 6.0625 0.1875 8.0625 2.1875 C7.875 4.1875 7.875 4.1875 7.0625 6.1875 C3.3812559 8.64166273 0.33988037 8.78134154 -3.9375 8.1875 C-6.4375 6.6875 -6.4375 6.6875 -7.9375 5.1875 C-6.70568129 -0.26769713 -5.55863258 0.03304776 0 0 Z " fill="#76D7FF" transform="translate(26.9375,32.8125)"/>
<path d="M0 0 C6.15234375 -0.09765625 6.15234375 -0.09765625 8 0 C9 1 9 1 9.1875 3.9375 C9 7 9 7 7 9 C3.4375 9.1875 3.4375 9.1875 0 9 C-1 8 -1 8 -1.125 5.0625 C-1 2 -1 2 0 0 Z " fill="#7785FF" transform="translate(175,7)"/>
<path d="M0 0 C0.66 0 1.32 0 2 0 C1.50341703 5.66104589 0.45489316 9.87674471 -2 15 C-2.99 15 -3.98 15 -5 15 C-4.72706899 8.8590522 -4.02720165 4.75942013 0 0 Z " fill="#EBEDFF" transform="translate(146,22)"/>
<path d="M0 0 C0 2.97 0 5.94 0 9 C-2.875 9.125 -2.875 9.125 -6 9 C-6.66 8.34 -7.32 7.68 -8 7 C-7.76306451 4.5516666 -7.16353221 3.21804295 -5.6875 1.25 C-4 0 -4 0 0 0 Z " fill="#F1F5FF" transform="translate(25,18)"/>
<path d="M0 0 C4.19174654 1.04793663 5.21592961 1.91763635 8 5 C6.25 7 6.25 7 4 9 C2.68 9 1.36 9 0 9 C0 6.03 0 3.06 0 0 Z " fill="#F1F7FF" transform="translate(29,18)"/>
<path d="M0 0 C1.17369141 -0.00386719 1.17369141 -0.00386719 2.37109375 -0.0078125 C4.5625 0.125 4.5625 0.125 7.5625 1.125 C7.5625 1.785 7.5625 2.445 7.5625 3.125 C4.91791621 4.44729189 2.88488699 4.22177194 -0.0625 4.1875 C-1.06539062 4.17847656 -2.06828125 4.16945313 -3.1015625 4.16015625 C-3.87242188 4.14855469 -4.64328125 4.13695312 -5.4375 4.125 C-5.7675 3.135 -6.0975 2.145 -6.4375 1.125 C-4.08479407 -0.05135297 -2.616748 -0.00859359 0 0 Z " fill="#2F31FF" transform="translate(26.4375,27.875)"/>
<path d="M0 0 C2 1 4 2 6 3 C5.34 4.65 4.68 6.3 4 8 C2.68 8 1.36 8 0 8 C-1.43088528 5.13822943 -0.59991697 3.06624227 0 0 Z " fill="#85D7FF" transform="translate(25,45)"/>
<path d="M0 0 C2.475 0.495 2.475 0.495 5 1 C5.625 2.875 5.625 2.875 6 5 C5.34 5.66 4.68 6.32 4 7 C2.68 7 1.36 7 0 7 C0 4.69 0 2.38 0 0 Z " fill="#E4F0FF" transform="translate(29,33)"/>
<path d="M0 0 C1.32 0 2.64 0 4 0 C4 2.31 4 4.62 4 7 C2.35 6.67 0.7 6.34 -1 6 C-1.625 4.125 -1.625 4.125 -2 2 C-1.34 1.34 -0.68 0.68 0 0 Z " fill="#E9F3FF" transform="translate(21,33)"/>
<path d="M0 0 C0.763125 0.20625 1.52625 0.4125 2.3125 0.625 C1.9825 1.615 1.6525 2.605 1.3125 3.625 C-0.9975 3.625 -3.3075 3.625 -5.6875 3.625 C-5.6875 2.965 -5.6875 2.305 -5.6875 1.625 C-2.6875 -0.375 -2.6875 -0.375 0 0 Z " fill="#373FFF" transform="translate(27.6875,41.375)"/>
<path d="M0 0 C0.66 0 1.32 0 2 0 C2 1.65 2 3.3 2 5 C0.02 5.99 0.02 5.99 -2 7 C-1.125 1.125 -1.125 1.125 0 0 Z " fill="#E0E3FF" transform="translate(115,22)"/>
<path d="M0 0 C0.66 0 1.32 0 2 0 C1.67 1.98 1.34 3.96 1 6 C0.01 6.33 -0.98 6.66 -2 7 C-1.125 1.125 -1.125 1.125 0 0 Z " fill="#E1E4FF" transform="translate(280,22)"/>
<path d="M0 0 C0.66 0 1.32 0 2 0 C1.67 1.98 1.34 3.96 1 6 C0.01 6.33 -0.98 6.66 -2 7 C-1.125 1.125 -1.125 1.125 0 0 Z " fill="#E1E4FF" transform="translate(251,22)"/>
</svg>
